<svg xmlns="http://www.w3.org/2000/svg" viewBox="0 0 185.26 219.52"><defs><style>.cls-1{fill:none;stroke:#fb8627;stroke-miterlimit:10;}.cls-2{fill:#fb8627;}</style></defs><g id="Layer_2" data-name="Layer 2"><g id="Layer_1-2" data-name="Layer 1"><path class="cls-1" d="M25.26.47S82.86,19.9,92.12,39.32c0,0,20.57,33.45,26.75,48.56,0,0,14.4,25.9,35,45.32s31.89,54,30.86,78.77"/><path class="cls-1" d="M12.14,13.52S66.53,31.93,75.28,50.34c0,0,19.42,31.7,25.25,46,0,0,13.6,24.55,33,43S163.67,190.45,162.7,214"/><path class="cls-2" d="M150.52,219.52c1-22.3-9.7-53.32-29.08-70.77s-33-40.71-33-40.71C82.66,94.47,63.27,64.42,63.27,64.42,54.55,47,.26,29.52.26,29.52L0,219.47Z"/></g></g></svg>