<svg xmlns="http://www.w3.org/2000/svg" fill="#fb8627" viewBox="0 0 363 336"><defs><style>.cls-1{fill:none;}</style></defs><g id="Layer_2" data-name="Layer 2"><g id="Layer_1-2" data-name="Layer 1"><path class="cls-1" d="M363,336H0V0H363ZM167.46,289.24c41.71,6.31,93.46-14.17,118.55-61.51,26.66-50.29,15.73-109.54-26.91-147.24C218.53,44.62,157,41.73,111.49,73.56c-41.9,29.27-55,80.41-48.64,110.67,6.54-1.87,13-4.14,19.59-5.46,5.77-1.15,9-3.33,7.85-9.78-.36-2.05.41-4.29.64-6.44,6.21-57.89,60.33-94.23,116.17-78,34.38,10,59.08,39.13,63.14,75.4,4,35.9-9,64.64-38.26,85.69-15.17,10.91-32.6,15.48-51.23,15.71-1.88,0-5,.69-5.41,1.81C172.45,271.61,170.1,280.24,167.46,289.24Zm-39.62-44.85c5.08,10.13,9.42,18.69,13.65,27.29,1.76,3.59,4.1,5.95,8.48,5.58s5.69-3.59,6.71-7q6.58-22.23,13.06-44.5c4.75-16.28,9.59-32.53,14.13-48.87,1.67-6-1.85-9.72-8-9.07a23.7,23.7,0,0,0-4.35,1c-30.28,9-60.54,18.07-90.84,27-3.32,1-6,2.11-6.31,6s1.49,6.32,4.82,8Q90.37,215.3,101.49,221c1.55.79,3,1.77,5,3-1.7,1.85-2.87,3.21-4.13,4.47Q87.72,243.06,73,257.71a109.38,109.38,0,0,0-8.62,9,14.75,14.75,0,0,0,.87,19.63c4.88,4.93,13.24,5.61,19.3,1.44a33.46,33.46,0,0,0,4.52-3.9c6.28-6.21,12.55-12.43,18.73-18.73C114.23,258.65,120.52,252,127.84,244.39Zm54.67-7.25c35.85.13,67.1-28.76,65.17-68.71-2-41.58-37.55-70.48-77.58-64-38.91,6.27-58,42.41-55.28,64.74,8-2.48,15.83-5.06,23.77-7.35,3.9-1.13,6.22-3.11,8.06-7,11.78-25.07,46.72-29.22,63.67-7.93,13.4,16.85,12.06,47.45-14.58,59.07-1.82.79-4.19,2.13-4.74,3.75C187.94,218.57,185.38,227.67,182.51,237.14Z"/><path d="M167.46,289.24c2.64-9,5-17.63,7.88-26.08.38-1.12,3.53-1.79,5.41-1.81,18.63-.23,36.06-4.8,51.23-15.71,29.25-21,42.28-49.79,38.26-85.69-4.06-36.27-28.76-65.4-63.14-75.4-55.84-16.23-110,20.11-116.17,78-.23,2.15-1,4.39-.64,6.44,1.1,6.45-2.08,8.63-7.85,9.78-6.62,1.32-13,3.59-19.59,5.46-6.34-30.26,6.74-81.4,48.64-110.67,45.55-31.83,107-28.94,147.61,6.93,42.64,37.7,53.57,97,26.91,147.24C260.92,275.07,209.17,295.55,167.46,289.24Z"/><path d="M127.84,244.39c-7.32,7.62-13.61,14.26-20,20.78-6.18,6.3-12.45,12.52-18.73,18.73a33.46,33.46,0,0,1-4.52,3.9c-6.06,4.17-14.42,3.49-19.3-1.44a14.75,14.75,0,0,1-.87-19.63,109.38,109.38,0,0,1,8.62-9q14.64-14.7,29.32-29.34c1.26-1.26,2.43-2.62,4.13-4.47-2-1.18-3.45-2.16-5-3q-11.13-5.65-22.31-11.21c-3.33-1.65-5.11-4.21-4.82-8s3-5,6.31-6c30.3-8.91,60.56-18,90.84-27a23.7,23.7,0,0,1,4.35-1c6.16-.65,9.68,3.06,8,9.07-4.54,16.34-9.38,32.59-14.13,48.87q-6.5,22.26-13.06,44.5c-1,3.42-2.32,6.63-6.71,7s-6.72-2-8.48-5.58C137.26,263.08,132.92,254.52,127.84,244.39Z"/><path d="M182.51,237.14c2.87-9.47,5.43-18.57,8.49-27.5.55-1.62,2.92-3,4.74-3.75,26.64-11.62,28-42.22,14.58-59.07-16.95-21.29-51.89-17.14-63.67,7.93-1.84,3.92-4.16,5.9-8.06,7-7.94,2.29-15.8,4.87-23.77,7.35-2.7-22.33,16.37-58.47,55.28-64.74,40-6.44,75.58,22.46,77.58,64C249.61,208.38,218.36,237.27,182.51,237.14Z"/></g></g></svg>