<svg xmlns="http://www.w3.org/2000/svg" viewBox="0 0 239.74 191.52"><defs><style>.cls-1{fill:#fb8627;}.cls-2{fill:#1f3556;}.cls-3{fill:#203658;}.cls-4{fill:#253859;}</style></defs><g id="Layer_2" data-name="Layer 2"><g id="Layer_1-2" data-name="Layer 1"><path className="cls-1" d="M198.26,149.51C184,173.57,143.63,200.82,95.92,188.43,51.15,176.8,22,136.6,24.13,91.81,26.56,39.8,66,6.13,107,.85c52.46-6.76,92.49,28,103.32,64.64-9.19.28-17.47,3.09-23.34,10.31-8.43,10.38-9.75,22-4,34.11,1.63,3.44.89,3.89-2.33,3.85-7.49-.08-15-.06-22.48,0a5.86,5.86,0,0,1-5-2.45c-6.09-7.5-14.85-8.86-23.73-9.72a3.24,3.24,0,0,0-3.57,2.18c-.59,1.71.56,2.85,1.76,3.79,2.35,1.85,4.94,3.43,7.1,5.46,3.76,3.54,3.75,6.62.06,10.27a48.81,48.81,0,0,1-5.86,4.62c-4.39,3.14-4.37,4.41.09,7.66a49.56,49.56,0,0,1,5.84,4.64c3.51,3.5,3.58,6.48.08,9.9a57.43,57.43,0,0,1-7.08,5.49c-1.32.93-2.44,1.93-2,3.63s1.94,2.16,3.53,2.14c8.92-.12,17.17-2,23.48-9,1.2-1.32,2-2.93,4.31-2.92C170.66,149.55,184.24,149.51,198.26,149.51Zm-48.84-80.8c-8.25-.24-15.33,3.25-21.16,9.55-2.74,3-4.19,6.17-1,9.68,2.64,2.89,6.5,2.44,10-1,8.48-8.21,17.05-8.16,25.12.29,2.87,3,5.95,3.66,9.27,1.18s3.2-6,.09-9.6C166,72.23,158.82,68.6,149.42,68.71Zm-59.29,0c-9.21-.25-16.39,3.45-22.23,9.92-2.92,3.24-3,7.67-.09,9.77,3.34,2.46,6.41,1.62,9.31-1.24,8.56-8.45,17.11-8.43,25.49.13,2.94,3,6,3.53,9.26,1.13,2.93-2.15,2.8-6.48-.12-9.72C105.9,72.24,98.8,68.42,90.13,68.72Z"/><path className="cls-2" d="M185.82,137.71c-11.32,0-22.64,0-34,0-2.88,0-5.75-.33-7.22-3.37a5.55,5.55,0,0,1,3.83-8.13,25.52,25.52,0,0,1,5.93-.52q32.48-.06,64.94,0c7.23,0,8.31-1.13,8.32-8.48,0-7-.06-14,0-21,0-4.39-2.22-6.44-6.37-6.58-3.66-.13-7.32-.11-11,0-4.11.1-6.8,2-6.6,6.39.17,4,2.62,5.82,6.64,5.74,2.47,0,5-.32,7.41.6a5.26,5.26,0,0,1,3.65,5.37,5.12,5.12,0,0,1-3.62,5.34c-6.34,2.33-17.36-.57-21.57-5.77-5.2-6.44-5.68-14.21-1.3-21.35.18-.28.33-.58.52-.85,5.36-7.93,18.12-9,31-6.21,8.59,1.81,13,8.79,13.14,18.82.1,6.82.13,13.65,0,20.47-.24,12.18-7.6,19.44-19.86,19.55C208.47,137.79,197.14,137.71,185.82,137.71Z"/><path className="cls-3" d="M19,56.16c-2.64-6.75-4.89-12.39-7-18.07-.52-1.39.62-2.52,1.25-3.65A118.9,118.9,0,0,1,30.79,11c1.5-1.58,2.86-2.41,5.2-1.45,4,1.63,8.11,2.88,12.9,4.54A116.57,116.57,0,0,0,19,56.16Z"/><path className="cls-4" d="M6.09,22.16C4,17.05,2,12.52.4,7.84-1.24,3,2.37-.81,7.38.37c3.36.79,6.6,2.08,9.93,3,2.38.69,2.34,1.59.86,3.39C14.2,11.64,10.41,16.64,6.09,22.16Z"/></g></g></svg>
