<svg fill="#fff" xmlns="http://www.w3.org/2000/svg" viewBox="0 0 224.36 216.13"><g id="Layer_2" data-name="Layer 2"><g id="Layer_1-2" data-name="Layer 1"><path d="M0,94.11.77,87.6c6.12-6,12-12.18,18.45-17.78C44.9,47.51,70.76,25.42,96.55,3.24a13.38,13.38,0,0,1,17.43,0q45.46,39,90.79,78.18a17.9,17.9,0,0,1,5.33,8.45c1.22,4.67-1.15,8.59-5.64,10.73a11.44,11.44,0,0,1-12.29-1.83q-18.25-15.69-36.46-31.43L105.35,24C94.59,33.27,84,42.3,73.52,51.35Q46.94,74.19,20.38,97.07C12,104.28,6,103.34,0,94.11Z"/><path d="M91.82,126c-.59,2.73-1.16,5-1.55,7.25-1.19,6.87-1.17,6.87-8.38,6.87h-10c-4,0-6.34,2.08-6.45,6-.19,7-.14,13.93,0,20.89.07,4,2.25,6.07,6.31,6.06H95.52l18.22,21.46c-.77,0-2.16.2-3.55.2q-36.07,0-72.15,0c-7.41,0-8.83-1.38-8.83-8.55,0-27.7,0-55.4-.07-83.1A9.69,9.69,0,0,1,32.69,95q34-29.15,67.79-58.49c2.73-2.36,5.67-3.85,8.86-1.11C127.19,50.65,145,66,163.52,82c-27.27-3.23-48.39,5.78-64.87,28.62,0-4.45.07-7.49,0-10.53-.17-5.14-1.9-6.94-6.87-7-6.47-.08-12.94.06-19.4,0-4.52-.07-6.88,2-6.92,6.48-.06,6.64-.09,13.28,0,19.91.07,4.39,2.35,6.66,6.89,6.6C78.64,126,84.93,126,91.82,126Z"/><path d="M191.62,177.37c2.84,1,5.15,1.71,7.38,2.64,2.68,1.12,5.74,1.91,7.84,3.75,4.86,4.25,9.29,9,13.78,13.65,4.77,5,5,11.09.66,15.53s-10.91,4.25-15.9-.59c-4.17-4-8.14-8.28-12.34-12.29-3-2.88-4.86-6-4.85-10.4,0-1.9-1.93-3.8-3.22-6.12-13.2,10.21-27.5,13.72-43.06,10.89-13.09-2.39-23.61-9.37-31.53-20a51.59,51.59,0,0,1,74.1-70.61C202.32,118.08,212.52,148.05,191.62,177.37Zm-39.71-74.32A40.69,40.69,0,0,0,111,143.57a40.9,40.9,0,1,0,81.8.52A40.49,40.49,0,0,0,151.91,103.05Z"/></g></g></svg>