<svg xmlns="http://www.w3.org/2000/svg" viewBox="0 0 150.58 191.69"><defs><style>.cls-1{fill:#1a3254;}</style></defs><g id="Layer_2" data-name="Layer 2"><g id="Layer_1-2" data-name="Layer 1"><path className="cls-1" d="M18.21,83.13c-5.09-4.43-9.12-7.86-13-11.38a6.44,6.44,0,0,1-2-2.83c-3.47-13-5.67-26.19,2.12-38.37C11.94,20.12,19.91,10.76,31.61,5.37A55.75,55.75,0,0,1,54.76.13c13.32-.12,26.65-.22,40,0C127.24.66,150.63,24.05,150.55,56c0,8.66.09,17.32,0,26-.2,14.47-10.5,22.34-24.38,18.66-1.69-.45-3-1.23-3.8,1.32-4.11,13.21-22.22,15.78-30.79,5.17a6.14,6.14,0,0,0-1.19-.8c-2.68,5.33-5.84,10.33-11.82,12.43s-11.77,1-17-2.52c-1.72,1.27-.95,2.89-.95,4.23-.06,18.48,0,37-.07,55.44,0,8.91-6,15.41-14.08,15.76-8.89.39-15.57-6.18-15.65-15.64q-.24-26-.27-51.93c0-17.81,0-35.62,0-53.44,0-1.33,0-2.66-.05-4-.2-3.9-2.17-6.44-6.15-6.42s-6,2.43-6.09,6.41C18.17,71.61,18.21,76.56,18.21,83.13Z"/></g></g></svg>
