<svg xmlns="http://www.w3.org/2000/svg" viewBox="0 0 239.76 191.64"><defs><style>.cls-1{fill:#1a3254;}.cls-2{fill:#e07929;}</style></defs><g id="Layer_2" data-name="Layer 2"><g id="Layer_1-2" data-name="Layer 1"><path className="cls-1" d="M71.89,191.63q-26.2,0-52.43,0C7.57,191.61.07,184.24,0,172.37,0,149.74,0,127.1,0,104.47A17.2,17.2,0,0,1,5.69,91.15C24.08,74.3,42.4,57.37,60.9,40.64a16.47,16.47,0,0,1,22.36.29c18.5,16.73,36.81,33.66,55.18,50.53,3.95,3.62,5.33,8.32,5.34,13.5,0,22.3.12,44.6-.05,66.9-.09,13-7.31,19.76-20.41,19.77ZM90,120.05c0-2.49,0-5,0-7.47-.13-7.18-3.5-10.72-10.66-10.92-5.32-.15-10.64-.21-16,.06-6.18.31-9.42,3.71-9.6,9.84-.16,5.48-.14,11,0,16.44.15,6.41,3.43,9.86,9.84,10.13,5.47.24,11,.25,16.44,0,6.51-.3,9.78-4,9.93-10.62C90.08,125,90,122.54,90,120.05Z"/><path className="cls-2" d="M150.15,191.63c5.5-7.42,5.81-15,5.67-22.73-.18-10.82.06-21.65-.1-32.47-.05-3.32.74-4.75,4.42-4.69,6.34.11,7.81-1.62,7.93-8,0-2,0-4,0-6,0-8.31-.76-9.22-8.87-9.65-2.61-.13-3.65-1-3.44-3.58a8.81,8.81,0,0,0,0-3c-1.37-4.88.87-5.82,5.27-5.61,4.94.23,6.87-1.92,7.05-6.93.12-3.33.12-6.67,0-10-.19-5.18-2.15-7-7.51-7.07-3.16,0-6.33.09-9.49,0-3.35-.13-6,.8-7,4.26-.85,2.79-2,1.8-3.46.49q-9.34-8.66-18.76-17.22c-1.67-1.51-2-3.3-2-5.39.05-11.49-.07-23,.05-34.47.12-11.83,7.6-19.4,19.41-19.44q40.49-.16,80.95,0c12.27,0,19.41,7.6,19.43,20.43q.08,56.19,0,112.4c0,12.65.06,25.31,0,38-.08,14-6.95,20.75-21,20.75Zm6-155.59h-4.47c-6.32,0-7.83,1.54-7.89,8,0,3.31-.1,6.63,0,9.94.18,3.93,2.3,6.08,6.32,6.12,3.81,0,7.62,0,11.43,0,4.05,0,6.17-2.31,6.41-6.12A92.81,92.81,0,0,0,168,42c-.24-3.77-2.17-6.18-6.37-6C159.79,36.1,158,36,156.14,36ZM204,36h-6.46c-3.64,0-5.58,2.09-5.76,5.51a126.35,126.35,0,0,0,0,12.91c.17,3.47,2.3,5.43,5.79,5.57s7,.07,10.44,0c5.88,0,7.69-1.85,7.82-7.66,0-1.49,0-3,0-4.47C215.87,36,215.87,36,204,36ZM203.63,96h4.48c6.12-.07,7.67-1.58,7.74-7.62,0-3.32,0-6.64,0-10,0-4.24-2.09-6.49-6.39-6.51-3.82,0-7.64-.06-11.46,0-4,.06-6.16,2.19-6.27,6.16-.12,3.81-.06,7.63,0,11.45.05,4.21,2.1,6.48,6.43,6.47Zm.53,12h-4.49c-6.44.05-7.91,1.5-8,7.94,0,3.33-.08,6.66,0,10,.13,3.75,2.07,5.87,5.94,5.91s8,0,12,0c4.18,0,6.06-2.23,6.15-6.19.08-3.33.07-6.66,0-10-.09-6.18-1.55-7.62-7.7-7.67Z"/></g></g></svg>
