<svg xmlns="http://www.w3.org/2000/svg" viewBox="0 0 155.84 191.74"><defs><style>.cls-1{fill:#e07929;}.cls-2{fill:#e07929;}.cls-3{fill:#e07929;}</style></defs><g id="Layer_2" data-name="Layer 2"><g id="Layer_1-2" data-name="Layer 1"><path className="cls-1" d="M55.82,82.24c3.34,8,6.29,15,9.12,22,3,7.52,3,7.53-3.9,11.55-5,2.94-10,5.87-15,8.88-8.56,5.17-11.6,12.65-8.8,22.11Q42.47,164.46,48,182.05c2.35,7.42,9,11.21,15.4,9.12C70.07,189,73,182.43,70.63,175c-2.87-9.2-5.51-18.48-8.64-27.6-1.12-3.3-.18-4.67,2.55-6.25,9.08-5.24,18-10.7,27-16.14,12.29-7.46,15.93-19,10.3-32-3.94-9.16-7.65-18.43-11.76-27.52-1.51-3.32-.29-4.58,2.62-5.24a13.17,13.17,0,0,1,11.71,2.63c4.43,3.52,8.91,7,13.48,10.3,6.19,4.51,13.16,3.82,17.35-1.53s3.23-12.3-2.79-17.12c-5.32-4.26-10.66-8.54-16.29-12.38-8.74-6-18.47-7.31-28.63-4.58-9.14,2.46-18.17,5.33-27.27,8C50,48.41,43,55.17,38.18,64.38q-4.17,8-7.86,16.15c-1.19,2.61-2.73,3.76-5.7,3.59-4.31-.25-8.65-.17-13,0C4.79,84.29.08,89.15,0,95.85s4.75,11.52,11.7,11.6c6.66.09,13.32-.11,20,.06,7.71.2,13-3.35,16.47-10C50.58,92.84,52.89,88.1,55.82,82.24Z"/><path className="cls-2" d="M113.06,119.73a38.9,38.9,0,0,1-15.28,16c-1.49.85-2.12,1.69-1.7,3.56,2.33,10.32,9.66,16.37,20.16,16.4,9,0,17.93.05,26.9,0,7.6-.06,12.61-4.74,12.7-11.74s-4.85-11.65-12.57-11.68c-6.47,0-13-.26-19.42.09-4,.22-6.13-1.2-7.29-4.94C115.85,125.05,114.55,122.91,113.06,119.73Z"/><path className="cls-3" d="M36.22,18A17.84,17.84,0,0,0,54,35.77,18.19,18.19,0,0,0,71.76,17.85,18.31,18.31,0,0,0,53.86,0C44.3-.07,36.21,8.18,36.22,18Z"/></g></g></svg>
