<svg width="145" height="151" viewBox="0 0 145 151" fill="none" xmlns="http://www.w3.org/2000/svg">
<path d="M111.904 65.5423L113.11 53.9961L102.502 49.2757C102.155 49.1218 101.878 48.8447 101.724 48.4989L97.0054 37.8908L85.4569 39.0978C85.082 39.1351 84.7063 39.0335 84.4016 38.8132L75.0004 32L65.5992 38.8132C65.2937 39.0335 64.918 39.1351 64.5438 39.0978L52.9946 37.8908L48.2757 48.4989C48.1226 48.8447 47.8455 49.1218 47.4989 49.2742L36.8908 53.9961L38.0963 65.5423C38.1351 65.9173 38.0343 66.2937 37.8132 66.5992L31 76.0004L37.8132 85.4016C38.0343 85.707 38.1351 86.0835 38.0963 86.4584L36.8908 98.0039L47.4989 102.724C47.8447 102.878 48.1218 103.155 48.2757 103.502L52.9946 114.11L64.5438 112.903C64.5954 112.903 64.6491 112.895 64.6962 112.895C65.0189 112.895 65.3326 112.997 65.5932 113.188L75.0004 120L84.4016 113.188C84.7063 112.966 85.082 112.864 85.4569 112.903L97.0054 114.11L101.724 103.502C101.878 103.155 102.155 102.879 102.502 102.726L113.11 98.0039L111.904 86.4584C111.865 86.0835 111.966 85.707 112.188 85.4016L119 76.0004L112.188 66.5992C111.966 66.2937 111.865 65.9173 111.904 65.5423ZM97.1906 65.1502L66.904 95.4376C66.3065 96.0344 65.3385 96.0344 64.741 95.4376L51.754 82.4506C51.4664 82.1638 51.3051 81.7739 51.3051 81.3676C51.3051 80.9613 51.4664 80.5714 51.754 80.2846L56.083 75.9712C56.6798 75.376 57.6463 75.376 58.243 75.9712L65.8225 83.5351L90.6986 58.6589C91.2961 58.0614 92.2641 58.0614 92.8616 58.6589L97.1906 62.9872C97.7882 63.5847 97.7882 64.5535 97.1906 65.1502Z" fill="#09B879"/>
<path d="M129.236 35.2461L130.94 40.4892H136.453L131.993 43.7297L133.696 48.9728L129.236 45.7324L124.776 48.9728L126.48 43.7297L122.02 40.4892H127.533L129.236 35.2461Z" fill="#09B879"/>
<path d="M136.824 60.6992L138.528 65.9424H144.041L139.581 69.1828L141.284 74.426L136.824 71.1855L132.364 74.426L134.068 69.1828L129.608 65.9424H135.121L136.824 60.6992Z" fill="#09B879"/>
<path d="M134.412 91.1523L136.116 96.3955H141.629L137.169 99.6359L138.872 104.879L134.412 101.639L129.952 104.879L131.656 99.6359L127.196 96.3955H132.709L134.412 91.1523Z" fill="#09B879"/>
<path d="M118.236 113.365L119.94 118.608H125.453L120.993 121.849L122.696 127.092L118.236 123.852L113.776 127.092L115.48 121.849L111.02 118.608H116.533L118.236 113.365Z" fill="#09B879"/>
<path d="M100.541 128.13L102.245 133.373H107.758L103.298 136.613L105.001 141.857L100.541 138.616L96.081 141.857L97.7846 136.613L93.3245 133.373H98.8375L100.541 128.13Z" fill="#09B879"/>
<path d="M73.8106 135.13L75.5142 140.373H81.0272L76.5671 143.613L78.2707 148.857L73.8106 145.616L69.3505 148.857L71.0541 143.613L66.594 140.373H72.107L73.8106 135.13Z" fill="#09B879"/>
<path d="M47.0782 131.13L48.7818 136.373H54.2948L49.8347 139.613L51.5383 144.857L47.0782 141.616L42.6181 144.857L44.3217 139.613L39.8616 136.373H45.3746L47.0782 131.13Z" fill="#09B879"/>
<path d="M7.58796 93.1895L9.29157 98.4326H14.8045L10.3445 101.673L12.0481 106.916L7.58796 103.676L3.12787 106.916L4.83147 101.673L0.371381 98.4326H5.88436L7.58796 93.1895Z" fill="#09B879"/>
<path d="M21.1759 115.953L22.8795 121.196H28.3924L23.9323 124.437L25.6359 129.68L21.1759 126.439L16.7158 129.68L18.4194 124.437L13.9593 121.196H19.4722L21.1759 115.953Z" fill="#09B879"/>
<path d="M7.58796 68.3564L9.29157 73.5996H14.8045L10.3445 76.84L12.0481 82.0832L7.58796 78.8428L3.12787 82.0832L4.83147 76.84L0.371381 73.5996H5.88436L7.58796 68.3564Z" fill="#09B879"/>
<path d="M13.588 38L15.2916 43.2432H20.8045L16.3445 46.4836L18.0481 51.7268L13.588 48.4863L9.12787 51.7268L10.8315 46.4836L6.37138 43.2432H11.8844L13.588 38Z" fill="#09B879"/>
<path d="M27.588 19L29.2916 24.2432H34.8045L30.3445 27.4836L32.0481 32.7268L27.588 29.4863L23.1279 32.7268L24.8315 27.4836L20.3714 24.2432H25.8844L27.588 19Z" fill="#09B879"/>
<path d="M48.588 2L50.2916 7.24315H55.8045L51.3445 10.4836L53.0481 15.7268L48.588 12.4863L44.1279 15.7268L45.8315 10.4836L41.3714 7.24315H46.8844L48.588 2Z" fill="#09B879"/>
<path d="M73.588 0L75.2916 5.24315H80.8045L76.3445 8.4836L78.0481 13.7268L73.588 10.4863L69.1279 13.7268L70.8315 8.4836L66.3714 5.24315H71.8844L73.588 0Z" fill="#09B879"/>
<path d="M98.588 6L100.292 11.2432H105.805L101.344 14.4836L103.048 19.7268L98.588 16.4863L94.1279 19.7268L95.8315 14.4836L91.3714 11.2432H96.8844L98.588 6Z" fill="#09B879"/>
<path d="M115.782 18L117.486 23.2432H122.999L118.539 26.4836L120.242 31.7268L115.782 28.4863L111.322 31.7268L113.026 26.4836L108.566 23.2432H114.079L115.782 18Z" fill="#09B879"/>
</svg>
